<?xml version="1.0" standalone="no"?>
<!DOCTYPE svg PUBLIC "-//W3C//DTD SVG 20010904//EN"
 "http://www.w3.org/TR/2001/REC-SVG-20010904/DTD/svg10.dtd">
<svg version="1.0" xmlns="http://www.w3.org/2000/svg"
 width="512.000000pt" height="512.000000pt" viewBox="0 0 512.000000 512.000000"
 preserveAspectRatio="xMidYMid meet">

<g transform="translate(0.000000,512.000000) scale(0.100000,-0.100000)"
fill="#ffffff" stroke="none">
<path d="M1100 3831 c0 -4 18 -46 39 -93 l39 -85 138 -6 c211 -11 364 -9 364
4 0 17 -72 142 -97 167 -22 22 -27 22 -253 22 -126 0 -230 -4 -230 -9z"/>
<path d="M3450 3643 c-32 -4 -38 -9 -62 -61 -33 -70 -263 -518 -446 -867 -75
-143 -156 -299 -181 -346 l-44 -87 48 -88 c27 -49 60 -110 74 -135 l25 -46
-59 -104 c-32 -57 -70 -125 -84 -151 -14 -27 -28 -48 -31 -48 -4 0 -31 51 -61
113 -98 204 -477 945 -672 1315 l-191 362 -246 0 c-136 0 -249 -3 -253 -6 -3
-4 12 -42 34 -85 l39 -79 113 0 c61 0 117 -4 124 -8 10 -7 113 -213 113 -227
0 -3 -52 -5 -115 -5 -63 0 -115 -2 -115 -4 0 -2 73 -154 161 -337 290 -600
439 -910 439 -914 0 -2 63 -132 139 -290 l140 -285 217 2 217 3 81 155 c107
204 294 557 341 645 21 39 53 99 73 135 67 126 190 356 252 475 35 66 150 282
255 480 234 439 256 481 248 489 -7 6 -512 5 -573 -1z"/>
<path d="M13 53 c-19 -7 -16 -53 2 -53 10 0 15 10 15 30 0 17 -1 30 -2 29 -2
0 -9 -3 -15 -6z"/>
</g>
</svg>
